<svg xmlns="http://www.w3.org/2000/svg" xmlns:xlink="http://www.w3.org/1999/xlink" aria-hidden="true" role="img" class="iconify iconify--logos" width="50" height="50" preserveAspectRatio="xMidYMid meet" viewBox="0 0 256 257">
<rect width="50" height="50" fill="#1E1E1E"/>
<rect x="0.5" y="0.5" width="49" height="49" rx="9.5" fill="#D4AFB9" stroke="#333333"/>
<path d="M21.6914 49.0506C23.9539 48.6736 26.336 48.2117 28.7632 47.6531C35.8911 46.0128 43.4409 43.5311 49.4927 39.8942C49.4309 41.7393 48.9691 44.0885 47.7768 45.9974C47.0859 47.1035 46.1554 48.0536 44.9205 48.6832C43.6872 49.312 42.1199 49.6366 40.1292 49.4454C35.706 49.0207 29.1534 48.9535 22.9577 49.0324C22.5338 49.0378 22.1114 49.0439 21.6914 49.0506Z" fill="white" stroke="#333333"/>
<path d="M20.2165 38L5 21.9384L13.4536 14.8L20.6392 27.7384L35.0103 8.99998L46 19.7077L20.2165 38Z" fill="white" stroke="#333333"/>
</svg>